<?xml version="1.0" encoding="utf-8"?>
<!-- Generator: Adobe Illustrator 21.1.0, SVG Export Plug-In . SVG Version: 6.00 Build 0)  -->
<svg version="1.1" xmlns="http://www.w3.org/2000/svg" xmlns:xlink="http://www.w3.org/1999/xlink" x="0px" y="0px"
	 viewBox="0 0 684.9 867" style="enable-background:new 0 0 684.9 867;" xml:space="preserve">
<style type="text/css">
	.st0{opacity:0.62;}
	.st1{opacity:0.35;}
</style>
<g id="medium">
	<g>
		<path class="st0" d="M374.8,843.4c-3.2-3-12.2-12.7-14.3-15.6c-6.8-9.8-13.7-19.5-20.7-29.1c-10.4-14.4-21.1-28.6-31.5-42.9
			c-13.4-18.3-26.6-36.6-40-54.9c-14-19.3-28-38.6-42.1-57.8c-14-19.2-28-38.3-42-57.5c-10.8-14.9-21.6-29.8-32.5-44.6
			c-13.2-18-26.5-35.9-39.8-53.8c-1.8-2.4-3.6-4.7-5.2-7.2c-0.7-1.1-1.3-2.4-1.5-3.7c-2.4-16.5-4.8-32.9-7-49.4
			c-1.4-10.1-2.4-20.2-3.6-30.2c-0.2-1.3-0.2-2.7-0.6-4c-0.5-1.9,0.2-3.3,1.3-4.8c8.4-11.2,16.7-22.4,25.2-33.6
			c20.1-26.6,40.2-53.2,60.3-79.8c12.5-16.5,25-33.1,37.5-49.6c14.2-18.7,28.5-37.4,42.6-56.2c15.2-20.2,30.3-40.5,45.5-60.6
			c14.2-18.8,28.4-37.5,42.6-56.2c10.4-13.8,20.8-27.6,31.2-41.4c0.7-1,1.4-1.9,2.3-3.1c0.6,0.7,1.1,1.3,1.6,1.9
			c17.2,23.3,34.4,46.6,51.5,69.9c22.1,30.2,44.2,60.4,66.3,90.6c10.1,13.8,20.2,27.6,30.4,41.4c23.2,31.6,46.3,63.2,69.5,94.8
			c18.3,24.9,36.6,49.7,55,74.5c0.9,1.2,1.7,2.4,2.5,3.5c0.5,0.7,1.2,1.2,1.8,1.8c0.2,0.2,0.6,0.3,0.7,0.6c1.1,3.8,4.1,6.4,6.2,9.5
			c1,1.4,1.3,2.8,1.2,4.4c-0.8,12.4-1.6,24.7-2.4,37.1c-0.5,7.9-1,15.8-1.5,23.7c-0.1,1.2-0.5,2.4-1,3.4
			c-8.1,14.9-16.2,29.8-24.3,44.7c-1,1.8-2.2,3.5-3.5,5.1c-6.4,8.3-12.9,16.5-19.2,24.8c-17.8,23.2-35.6,46.5-53.5,69.7
			c-27.7,35.9-55.5,71.8-83.2,107.7c-15,19.4-29.9,39-44.9,58.4c-10.9,14.2-22,28.3-32.8,42.6c-4.2,5.5-8.1,11.1-11.9,16.9
			c-1.2,1.9-2.4,5-4.7,9.2C379.9,843.4,381.4,843.4,374.8,843.4z M582.6,470.7c-0.1,0.3-0.2,0.6-0.3,0.9
			c-6.3,11.9-12.7,23.9-19,35.8c-10.8,20.4-21.7,40.8-32.5,61.2c-5.7,10.8-11.3,21.7-16.9,32.5c-3.2,6.1-6.5,12.1-9.7,18.1
			c-7.1,13.4-14.1,26.9-21.2,40.3c-13.2,25-26.3,49.9-39.4,74.9c-9.4,18-18.7,36-28.1,54.1c-0.6,1.1-1.2,2.2-2,3.7
			c1.9-1.7,210.9-289.8,212-292.2c-0.8-0.8-1.7-1.8-2.6-2.6c-8.4-8.1-16.8-16.2-25.1-24.4c-1.6-1.6-3.2-2.3-5.5-2.2
			C588.9,471.1,585.7,470.8,582.6,470.7c0.3-0.3,0.5-0.7,0.9-1c2.8-2.1,5.6-4.2,8.4-6.3c0.5-0.4,0.9-0.8,1.4-1.3
			c-0.8-0.7-1.4-1.3-2.1-1.9c-17.7-14.9-35.4-29.8-53-44.7c-0.6-0.5-1.2-1.3-1.5-2.1c-0.6-1.9-1-3.9-1.3-5.8c-0.1-0.6,0-1.3,0-2.1
			c0.5,0.2,0.8,0.3,0.9,0.4c6.6,5.2,13.2,10.4,19.7,15.7c8.6,7.1,17.1,14.4,25.7,21.6c0.8,0.6,1.6,1.2,2.4,1.8c0-0.9-0.2-1.4-0.5-2
			c-5.4-11.3-10.9-22.6-16.3-33.9c-9.3-19.5-18.5-39-27.8-58.5c-11.2-23.6-22.4-47.3-33.7-70.9c-6.2-12.9-12.4-25.8-18.6-38.7
			c-7.7-15.9-15.3-31.9-23-47.8c-4.4-9.1-8.9-18.3-13.3-27.4c-6.3-13-12.5-25.9-18.8-38.9c-2.2-4.6-4.6-9.1-6.8-13.8
			c-3-6.2-5.9-12.4-8.9-18.6c-2.8-5.8-5.8-11.6-8.5-17.5c-2.1-4.5-4.6-8.8-7.9-12.6c-2.1-2.4-4.9-3.8-7.5-5.5
			c-0.6-0.4-1.6-0.3-2.7-0.5c0.2,1.4,0.3,2.4,0.5,3.4c3.6,17.8,7.3,35.6,10.9,53.3c6.2,30.3,12.4,60.6,18.5,90.9
			c7.3,36,14.5,72.1,21.8,108.1c7.1,35,14.2,70,21.2,105.1c2.1,10.2,4.1,20.4,6.1,30.6c1.1,5.5,2.2,11,3.3,16.5
			c0.1,0.3,0.3,0.7,0.5,1c0.7-0.4,1.4-0.7,2.2-1.1c2.8,2.8,5.6,5.5,8.2,8.4c8.9,10.1,17.6,20.3,26.5,30.4c0.5,0.6,1.1,1.2,1.8,1.5
			c2.2,1.1,4.5,2.1,6.7,3.2c2.5,1.2,5.2,1.5,7.9,1.2c0.6-0.1,1.3-0.3,1.7-0.6c3.3-2.9,6.4-6,9-9.6c0.5-0.7,0.9-1.5,1.1-2.4
			c1-4.4,1.9-8.8,1.8-13.3c0-2.1,0.1-4.2,0.2-6.2c0.1-2,1.6-3.8,3.5-4.1c3.7-0.6,4-0.6,5.6,1.8c0.7,1.1,1.5,2.1,2.3,3
			c0.9,1,1.8,1.2,3.2,0.8c3-0.9,5.6-2.2,7.8-4.5c1.6-1.6,3.6-2.6,5.9-3c3.2-0.5,6.4-1.2,9.7-1.7
			C579.3,471.1,580.9,470.9,582.6,470.7z M405.1,407.7c-0.4-7.7-0.8-15.5-1.2-23.2c-0.6-12.5-1.3-24.9-1.9-37.4
			c-0.8-16-1.6-31.9-2.4-47.9c-0.6-11.3-1.1-22.7-1.7-34c-0.7-14.5-1.5-28.9-2.2-43.4c-0.4-8-0.8-16-1.2-24
			c-0.6-10.6-1.2-21.2-1.7-31.9c-0.4-7.7-0.7-15.3-1.1-23c-0.6-11.7-1.3-23.5-1.8-35.2c-0.5-10.1-0.9-20.3-1.4-30.4
			c-0.3-5.6-0.4-11.2-0.8-16.8c-0.2-2.4-0.7-4.7-1.3-7.1c-0.4-1.7-1.6-2.1-2.8-1c-2.3,2.3-4.7,4.5-5.1,8.1
			c-0.7,6.2-1.6,12.4-2.3,18.5c-0.8,6.7-1.5,13.3-2.4,20c-0.6,5.2-1.3,10.3-2,15.5c-0.9,7.3-1.8,14.6-2.7,21.9
			c-1.7,13.6-3.5,27.3-5.2,40.9c-1.6,12.5-3,25.1-4.5,37.6c-1.4,11.3-2.8,22.5-4.2,33.8c-1.8,15.1-3.6,30.2-5.4,45.2
			c-1.5,12.4-3.1,24.7-4.6,37.1c-1.7,14-3.3,27.9-5,41.9c-1.8,15.2-3.8,30.3-5.6,45.5c-1.3,10.7-2.6,21.4-3.9,32.2
			c-0.4,3.3-0.8,6.5-1.1,9.8c0,0.5,0.2,1,0.3,2C355.3,444.4,379.9,425.9,405.1,407.7z M431.5,100.5c-0.2,0.2-0.5,0.3-0.7,0.5
			c0.6,1.4,1.1,2.8,1.7,4.1c4.6,9.8,9.2,19.5,13.8,29.3c11.7,24.4,23.4,48.7,35.1,73.1c10.9,22.8,21.8,45.6,32.8,68.3
			c10.1,21,20.1,42,30.2,62.9c6.7,13.9,13.5,27.8,20.1,41.7c4.6,9.6,9,19.3,13.7,28.8c6.3,12.9,12.7,25.7,19,38.5
			c0.4,0.9,0.9,1.8,1.5,2.8c3.5-1.6,6.7-2.5,9.2-5.6c9.9-12.3,20.2-24.4,30.3-36.6c0.4-0.5,0.6-1,1.1-1.8
			c-17.6-3.6-34.9-7.1-52.3-10.1c-0.6-2.2-1.3-4.1-0.9-6.3c0.7,0,1.2-0.1,1.7,0c3.2,0.5,6.3,1,9.5,1.5c14.7,2.5,29.4,5.1,44,8.3
			c3.6,0.8,3.6,0.7,5.6-2.2c0.2-0.3,0.4-0.7,0.6-1.1c-0.5-0.7-0.9-1.2-1.3-1.8c-9.6-13-19.2-26-28.6-39.1c-7.6-10.6-15-21.4-22.5-32
			c-18.2-25.5-36.4-51.1-54.7-76.5c-11.6-16.2-23.5-32.1-35.3-48.2c-7.4-10.1-14.7-20.2-22.1-30.2c-4-5.4-7.9-10.8-11.9-16.3
			c-3.1-4.2-6.1-8.4-9.2-12.6c-5.9-7.9-11.9-15.9-17.8-23.8c-3.4-4.5-6.8-8.9-10.2-13.3C433.2,101.9,432.3,101.2,431.5,100.5z
			 M400.9,793.7c0.2,0.1,0.3,0.1,0.5,0.2c1-2.1,2-4.2,3-6.3c12.5-27.2,24.9-54.3,37.4-81.5c10.9-23.8,21.8-47.5,32.7-71.3
			c15.3-33.4,30.5-66.8,45.7-100.1c0.8-1.8,0.7-2.9-0.6-4.4c-14.7-16.3-29.4-32.7-44-49.1c-0.8-0.9-1.6-1.8-2.5-2.6
			c-0.4-0.3-0.9-0.5-1.7-1C447.8,583.1,424.4,688.4,400.9,793.7z M195,453.4c0.6-1.2,1.1-1.9,1.4-2.7c0.9-2,1.6-4,2.5-6
			c12.7-29.7,25.5-59.3,38.2-89c20.1-46.9,40.1-93.8,60.2-140.7c9.2-21.5,18.4-43.1,27.6-64.6c2.8-6.7,5.6-13.4,8.4-20.2
			c0.3-0.8,0.9-1.6,0.4-3.1c-1.1,1.1-2,1.9-2.8,2.9c-1.9,2.5-3.9,5.1-5.7,7.7c-4.2,6.3-8.3,12.7-12.4,19.1c-7.7,12-15.3,24-23,36
			c-7.8,12.1-15.6,24.2-23.3,36.3c-4.3,6.7-8.4,13.4-12.6,20.1c-6.6,10.4-13.2,20.8-19.7,31.2c-5,8-10,16-14.9,24.1
			c-4.3,6.9-8.5,13.7-12.8,20.6c-4.9,7.9-9.6,15.8-14.5,23.7c-4.5,7.3-9.1,14.5-13.6,21.8c-4.7,7.5-9.3,15.1-14,22.7
			c-2.3,3.7-4.6,7.3-6.9,11c-1.1,1.8-1.1,1.9,0.3,3.6c2,2.4,4,4.8,6,7.2c9.4,11.6,18.8,23.2,28.2,34.9
			C192.9,451,193.8,452,195,453.4z M341.6,132.6c-0.2-0.1-0.4-0.1-0.5-0.2c-0.3,0.4-0.8,0.8-1,1.2c-2.3,4.6-4.7,9.2-6.9,13.9
			c-2.3,5-4.3,10.1-6.5,15.2c-2.5,5.8-5.1,11.5-7.6,17.3c-2.5,5.9-4.9,11.8-7.4,17.7c-4.2,9.9-8.5,19.7-12.7,29.5
			c-3.5,8.2-6.8,16.4-10.2,24.6c-6.1,14.5-12.2,29-18.3,43.6c-2.9,6.9-5.6,13.9-8.5,20.9c-4.2,10.1-8.5,20.2-12.7,30.3
			c-3.2,7.7-6.5,15.5-9.7,23.2c-5.2,12.4-10.4,24.8-15.5,37.2c-3.3,7.9-6.6,15.8-9.8,23.7c-2.4,5.8-4.7,11.5-7.1,17.3
			c-0.3,0.8-0.9,1.6-0.4,2.9c1.3-1.1,2.4-2,3.4-2.9c7.9-7,15.8-14,23.7-21c8.4-7.5,16.9-14.9,25.4-22.4c0.9-0.8,1.4-1.6,1.8-2.7
			c6.8-22.5,13.7-45,20.5-67.4c9-29.7,18.1-59.5,27.1-89.3c10.3-34.1,20.6-68.3,30.9-102.4c0.9-2.8,1.5-5.7,2.2-8.6
			C341.7,133.8,341.6,133.2,341.6,132.6z M462,466.4c-1.9-1.7-3.4-3-4.9-4.4c-7-6.4-14-12.9-21.1-19.2c-7.1-6.4-14.2-12.7-21.3-19
			c-1.9-1.6-3.7-3.3-5.6-4.9c-1.9-1.6-2.6-1.6-4.7-0.3c-1,0.6-1.9,1.2-2.8,1.8c-7.6,5.3-15.2,10.6-22.8,15.9
			c-12.9,9-25.7,17.9-38.6,26.9c-0.5,0.4-1,0.9-1.9,1.6c1.2,0.2,1.9,0.3,2.5,0.3c5.3,0.3,10.5,0.7,15.8,1
			c12.1,0.7,24.2,1.6,36.4,2.1c22,0.9,43.9,0.6,65.9-1.4C459.8,466.9,460.6,466.7,462,466.4z M120.1,424.8c0.7-0.6,1.1-0.8,1.3-1.2
			c59.1-91.3,117.9-182.7,176.1-274.6c0.2-0.3,0.3-0.7,0.5-1c-0.8,0.3-1.4,0.8-1.9,1.4c-1.3,1.6-2.6,3.2-3.8,4.9
			c-6.6,8.8-13.2,17.7-19.7,26.5c-5.9,8-11.8,15.9-17.6,24c-10.4,14.3-20.7,28.6-31,43c-10,14-20,28-29.9,42
			c-5.8,8.2-11.4,16.4-17.1,24.6c-3.1,4.5-6.1,9-9.2,13.4c-4.5,6.5-9,13-13.5,19.5c-3.4,4.9-7,9.7-10.5,14.6
			c-3.3,4.7-6.6,9.4-10,14.1c-5.3,7.3-10.5,14.7-15.8,22c-1.2,1.7-1.7,3.4-1.4,5.4c0.9,6,1.7,12,2.7,18
			C119.2,422.5,119.7,423.5,120.1,424.8z M248.5,459c0,0.1,0,0.3,0,0.4c1.1,0.1,2.1,0.3,3.2,0.3c8.2,0,16.5,0,24.7,0.1
			c6.2,0,12.3,0.4,18.3,1.9c0.9,0.2,2.1,0.5,2.5,1.1c0.8,1.2,1.2,2.7,1.6,4.2c0.3,1.1-0.3,1.9-1.2,2.7c-1.4,1.2-2.9,2-4.8,2
			c-2.8,0-5.6,0.2-8.4,0.2c-8.9-0.2-17.7-0.4-26.6-0.9c-7.5-0.4-15-1-22.5-1.8c-5.1-0.5-10.1-1.6-15.2-2.3c-1.4-0.2-2.8-0.3-4.8-0.4
			c0.8,1.2,1.2,1.8,1.7,2.4c3.1,3.9,6.2,7.7,9.4,11.5c9.7,11.8,19.4,23.6,29.1,35.4c0.6,0.7,1.3,1.3,2,2.1
			c18.8-15.9,39.2-29.2,58.5-44.3c-0.5-0.6-0.8-1.2-1.2-1.6c-5-5.5-10-11-15-16.5c-2.3-2.5-4.5-5-6.8-7.4c-2.1-2.2-2.9-2.3-5.7-1.1
			c-0.2,0.1-0.4,0.2-0.7,0.3c-2.9,1.6-6,2.1-9.2,2.2c-2.9,0.1-5.7,0.3-8.6,0.5c-4,0.4-7.6,1.6-11,3.7c-2.8,1.7-5.7,3.3-8.5,4.9
			C249.1,458.6,248.8,458.8,248.5,459z M350.5,751.7c0.1-0.1,0.3-0.1,0.4-0.2c-1.2-2.9-2.3-5.8-3.5-8.6
			c-9.4-22.9-18.9-45.8-28.3-68.8c-5.5-13.3-10.9-26.6-16.4-39.9c-13.9-33.6-27.8-67.3-41.7-100.9c-0.5-1.3-1.3-2.5-2.3-3.6
			c-8.7-9.8-17.5-19.6-26.2-29.4c-4.7-5.3-9.5-10.6-14.3-15.9c-0.6-0.7-1.1-1.5-2.6-1.7c0.6,1.4,1.1,2.6,1.6,3.7
			c5.8,11.5,11.6,23,17.3,34.5c3.9,7.8,7.5,15.7,11.4,23.5c2.9,5.8,6.1,11.4,9,17.2c4.2,8.2,8.2,16.5,12.3,24.7
			c9.7,19.3,19.3,38.6,29,57.9c6.5,12.9,13,25.7,19.5,38.5c10.3,20.5,20.6,41,30.8,61.5C348,746.7,349.3,749.2,350.5,751.7z
			 M398.4,538.5c1-0.9,1.9-1.7,2.7-2.5c10.1-9.6,20.3-19.3,30.4-29c8.6-8.2,17.2-16.5,25.8-24.8c0.6-0.6,1.1-1.2,1.7-1.9
			c-1.3-0.2-2.4,0.1-3.5,0.3c-3.8,0.6-7.6,1.6-11.4,1.7c-8.6,0.4-17.3,0.5-25.9,0.6c-6.6,0.1-12.4,2.1-17.1,6.9
			c-0.7,0.7-1.5,1.5-2.2,2.2c-4,4.2-8.6,7.7-14,9.9c-2.8,1.2-5.3,2.8-7.2,5.4c-1.2,1.6-2.7,2.9-4.1,4.3c-0.6,0.6-1.2,1.3-2,2.1
			C380.6,522.1,389.4,530.2,398.4,538.5z M191.3,459.8c-1.1-0.3-1.7-0.4-2.3-0.5c-2.9-0.5-5.8-1-8.7-1.5
			c-13.9-2.7-27.7-5.7-41.4-9.2c-4.3-1.1-8.8-1.9-13.2-2.6c-2.2-0.4-2.8,0.3-2.5,2.5c0.4,2.5,1,5,1.3,7.6c0.3,2.1,1.1,3.8,2.2,5.5
			c7.4,10.9,14.7,21.9,22.1,32.8c0.7,1,1.4,1.9,2.3,3.2C164.5,484.9,177.8,472.6,191.3,459.8z"/>
		<path d="M602,37.9c0.3,1.3-0.2,1.6-1.7,1.4C601.1,38.6,601.5,38.3,602,37.9z"/>
		<path d="M508.9,260.6c-0.2-0.2-0.3-0.4-0.4-0.5c0.2-0.1,0.3-0.3,0.5-0.3c0.1,0,0.4,0.3,0.3,0.3
			C509.3,260.2,509.1,260.4,508.9,260.6z"/>
		<path class="st0" d="M169.2,405.4c12.8-3.7,25.6-6.5,38.5-9.1c0,2.2,0,4.1,0,5.9c0,1.4-0.8,2-2,2.3c-1.2,0.3-2.5,0.7-3.7,1
			c-7.9,2-15.8,4-23.7,6.1c-1.4,0.4-2.8,0.7-4.2,0.9c-2.1,0.3-3.4-0.5-4.1-2.5C169.7,408.6,169.6,407.1,169.2,405.4z"/>
	</g>
</g>
<g id="dark">
	<g class="st1">
		<path d="M374.8,843.4c-0.7-1.5-8.3-11.1-10.3-13.7c-11.6-16-23.2-32-34.8-48c-13.3-18.3-26.7-36.5-40.1-54.8
			c-20.4-27.9-40.7-55.8-61.1-83.7c-8.5-11.7-16.9-23.5-25.7-35c-16.4-21.4-31.9-43.4-47.9-65.1c-15.6-21.1-31.1-42.3-46.6-63.4
			c-0.8-1.1-1.2-2.2-1.4-3.5c-1.9-14.1-3.9-28.2-5.8-42.3c-1.9-13.7-3.7-27.4-5.6-41.1c-0.2-1.6,0.1-2.8,1.2-4.2
			c6.4-8.2,12.6-16.5,18.9-24.8c15.9-21.1,31.7-42.2,47.6-63.3c21.5-28.6,43.1-57.3,64.6-85.9c12.5-16.6,24.9-33.3,37.4-50
			c13-17.3,26-34.5,39-51.7c12.5-16.6,25-33.2,37.5-49.9c10.1-13.5,20.3-27,30.4-40.5c3.2-4.3,6.4-8.6,9.6-12.9
			c0.5-0.6,1-1.2,1.7-2.1c0.9,1.1,1.6,2.1,2.4,3.2c19.6,26.6,39.2,53.2,58.8,79.8c16.2,22,32.2,44,48.4,66
			c22.2,30.1,44.5,60,66.6,90.1c19.1,25.9,38.1,51.8,57.1,77.7c16.3,22.1,32.6,44.2,48.9,66.2c1.1,1.5,1.6,3,1.5,4.9
			c-0.8,21.4-1.5,42.8-2.3,64.3c-0.1,1.6-0.4,3-1.2,4.3c-6.2,11.8-12.3,23.5-18.4,35.3c-0.8,1.5-1.7,2.9-2.7,4.2
			c-14.7,19.5-29.5,38.9-44.2,58.3c-21.1,28-42.1,56-63.2,84c-23,30.5-46,60.9-69,91.4c-19.3,25.6-38.6,51.2-57.9,76.9
			c-4.4,5.9-8.9,11.8-13.2,17.7c-1.8,2.4-3.4,4.9-4.9,7.4c-0.6,0.9-3.2,3.2-3.5,4.3C381.1,843.3,380.3,843.5,374.8,843.4z
			 M264,525.2c2.6,8.4,122.6,289.5,124.6,291.6c0.5-4.7,1.4-9.2,1.5-13.7c0.2-44.1,0.1-88.1,0.2-132.2c0-27.4,0.1-54.9,0.2-82.3
			c0-15.9-0.1-31.8,0-47.7c0-1.7-0.5-2.8-1.8-3.9c-4.8-3.8-9.6-7.8-14.3-11.7c-15.5-12.7-31-25.5-46.6-38.2c-4-3.3-4.4-3.3-8.7-0.3
			c-14.4,10-28.9,20.1-43.3,30.2C271.7,519.7,267.9,522.4,264,525.2z M374.3,813.9c-0.8-1.7-1.5-3.2-2.2-4.6
			c-11.9-23.7-23.8-47.5-35.6-71.2c-12.6-25.2-25.2-50.3-37.9-75.5c-12.7-25.2-25.3-50.4-38-75.7c-5.3-10.6-10.7-21.1-16-31.7
			c-14-27.7-28-55.4-41.9-83.1c-0.5-1.1-1.1-2.1-1.7-3.1c-0.8-1.3-1.4-1.5-2.8-0.7c-1.2,0.8-2.4,1.6-3.5,2.5
			c-12.7,10.2-25.4,20.5-38.1,30.7c-2.1,1.7-4.1,3.3-6.1,5c-1.6,1.3-1.6,1.5-0.3,3c0.7,0.9,1.4,1.8,2,2.7
			c6.8,9.6,13.6,19.2,20.4,28.8c14.5,20.6,29,41.2,43.6,61.7c24.1,34.1,48.3,68.1,72.5,102.1c15.8,22.3,31.6,44.6,47.4,66.9
			c10,14.1,20,28.1,30.1,42.2c0.9,1.2,1.8,2.4,2.8,3.7C370.7,816.4,372.4,815.2,374.3,813.9z M402.4,84.2c-0.5,2-0.5,2.1-0.1,4.2
			c1.9,10.6,3.8,21.2,5.8,31.8c4,20.6,8.1,41.3,12.2,61.9c4.7,23.5,9.5,47,14.3,70.5c5.5,27.2,10.8,54.4,16.3,81.6
			c3.9,19.4,7.9,38.7,11.8,58c2.5,12.2,4.9,24.5,7.4,36.7c2.2,10.8,4.4,21.6,6.6,32.4c0.2,0.8,0.5,1.6,0.8,2.6
			c0.5-0.4,0.8-0.5,1-0.7c2.9-3.1,5.9-6.1,8.8-9.2c11.1-11.7,22.3-23.4,33.4-35.1c4.1-4.3,8.2-8.7,12.3-13.1
			c1.1-1.1,1.6-2.2,0.9-3.9c-1.9-4-3.6-8-5.3-12.1c-0.7-1.7-1.9-2.5-3.7-2.6c-1.2-0.1-2.4-0.1-3.6-0.2c-14-0.9-27.9-1.9-41.9-2.8
			c-3.4-0.2-6.7-0.3-10.1-0.5c-2.5-0.1-3.1-0.6-3.3-3.1c-0.1-1.2,0-2.3,0-3.6c2,0,3.9,0,5.8,0.1c12.5,0.7,24.9,1.4,37.4,2.1
			c0.8,0,1.5,0.4,2.3,0.6c4,1.3,7.9,2.6,11.8,3.8c0.7,0.2,1.5,0.3,2.6,0.4c-0.4-1.2-0.5-1.9-0.8-2.6c-1.7-4.2-3.3-8.5-5-12.7
			c-4-9.8-8.1-19.7-12.1-29.5c-3.9-9.6-7.5-19.2-11.4-28.8c-4.8-11.9-9.8-23.8-14.6-35.8c-6.7-16.5-13.3-33.1-20-49.6
			c-5-12.4-10.1-24.9-15.2-37.3c-4.9-12-9.9-23.9-14.9-35.9c-4.4-10.6-8.7-21.2-13.1-31.7c-3.7-8.9-7.5-17.8-11.2-26.8
			c-0.8-2-1.5-4-2.5-6C404.6,86.3,404.2,84.8,402.4,84.2z M336.9,457.6c1-0.6,1.8-0.9,2.5-1.4c2.7-1.9,5.5-3.9,8.2-5.9
			c13.3-9.4,26.7-18.8,40-28.2c3.4-2.4,6.8-4.9,10.1-7.3c0.7-0.5,1.5-1.2,1.6-1.9c0.3-1.6,0.4-3.3,0.4-5c-0.2-5.7-0.5-11.3-0.7-17
			c-0.4-12-0.9-24-1.3-36c-0.5-12.7-0.9-25.4-1.4-38.1c-0.6-14.8-1.2-29.6-1.8-44.3c-0.4-10.4-0.7-20.8-1.1-31.2
			c-0.7-18-1.4-36-2.1-53.9c-0.5-13.7-1-27.5-1.5-41.2c-0.5-12.9-1-25.9-1.5-38.8c-0.4-9.1-0.9-18.2-1.4-27.3
			c-0.2-3.8-0.6-7.6-0.8-11.5c-0.1-1.4,0-2.7-0.2-4.1c-0.2-1.8-1.2-3.1-2.7-4c-1.9-1.2-3-0.8-3.4,1.4c-0.6,3.1-1.2,6.3-1.6,9.4
			c-1.1,8.6-2,17.3-3,26c-0.9,7.8-1.8,15.6-2.6,23.3c-0.9,8.3-1.7,16.5-2.6,24.8c-1.2,11.4-2.5,22.9-3.7,34.3
			c-1.2,10.8-2.3,21.6-3.5,32.4c-1.2,11.2-2.4,22.4-3.6,33.6c-0.9,8.1-1.7,16.2-2.6,24.3c-1.1,9.9-2.2,19.9-3.2,29.8
			c-0.9,8.4-1.8,16.9-2.7,25.3c-1.1,10.1-2.2,20.2-3.3,30.3c-1,9.1-1.9,18.3-2.8,27.4c-1.1,10-2.2,20-3.3,30
			c-1.4,12.9-2.7,25.8-4,38.7C336.8,453.4,336.9,455.2,336.9,457.6z M391,93.4c-0.3,0.1-0.6,0.1-0.8,0.2c0,0.8-0.1,1.5,0,2.3
			c0.1,3.4,0.2,6.9,0.4,10.3c0.7,11.9,1.3,23.8,2,35.7c0.5,8.8,0.9,17.6,1.4,26.3c0.9,17.2,1.9,34.3,2.9,51.5
			c0.9,16,1.8,31.9,2.7,47.9c0.1,1.2,0.5,2.3,0.8,3.4c0,0.2,0.1,0.5,0.1,0.6c-1.1,0.6-0.5,1.6-0.5,2.4c0.2,4.2,0.4,8.3,0.6,12.5
			c0.2,4.2,0.6,8.3,0.8,12.5c0.6,13.3,1.4,26.5,2.2,39.8c0.7,11.3,1.3,22.5,2,33.8c0.8,13.8,1.7,27.6,2.5,41.4
			c0.1,1.8-0.4,3.3-2.1,4.2c-1.5,0.9-3,1.9-4.4,2.9c-10.4,7.1-20.7,14.2-31.1,21.3c-10,6.9-20,13.9-29.9,20.8
			c-0.7,0.5-1.6,0.8-1.8,2c0.9,0.1,1.6,0.3,2.4,0.3c4.3,0.2,8.6,0.5,12.9,0.7c12.3,0.4,24.6,1,36.9,1.2c11.7,0.2,23.5,0,35.3-0.3
			c6.6-0.1,13.3-0.6,19.9-1c4.5-0.3,8.9-0.6,13.4-1c1.9-0.1,3.8-0.3,5.7-0.6c1.8-0.3,2-0.7,1.8-2.5c0-0.4-0.1-0.8-0.2-1.2
			c-1.3-6.4-2.7-12.8-4-19.3c-4.5-21.9-9-43.9-13.4-65.8c-3.4-16.9-6.8-33.8-10.2-50.8c-2.7-13.5-5.3-27-7.9-40.5
			c-6-30-12-60.1-18-90.1c-2.5-12.4-5.1-24.8-7.6-37.1c-1.2-5.7-2.5-11.4-3.7-17.1c-1.5-7.1-2.9-14.3-4.4-21.4
			c-1.6-7.3-3.4-14.6-5.1-21.9C391.8,95.7,391.4,94.6,391,93.4z M372.7,64.2c-1.8,0.8-2.1,2.3-2.5,3.6c-1.9,5.7-3.8,11.4-5.6,17.1
			c-2.2,6.9-4.3,13.9-6.5,20.8c-2.8,9.1-5.6,18.2-8.4,27.3c-4.9,16.1-9.7,32.1-14.6,48.2c-4.5,15.1-9,30.2-13.6,45.3
			c-3.2,10.6-6.3,21.1-9.5,31.7c-5.4,18.3-10.8,36.7-16.3,55c-3.9,13-7.9,26-11.7,39.1c-5.1,17.3-10.1,34.5-15.2,51.8
			c-0.7,2.2-0.6,3.8,1.2,5.3c0.2,0.2,0.3,0.3,0.5,0.5c11,12.3,22,24.5,33,36.8c5,5.6,10.1,11.1,15.2,16.7c0.6,0.6,1,1.4,2.2,1.4
			c0.2-0.8,0.4-1.6,0.5-2.4c0.6-4.4,1.2-8.9,1.8-13.3c1.4-10.9,2.9-21.7,4.3-32.6c1.2-9,2.4-17.9,3.5-26.9c0.4-3.6,0.3-3.8-3.3-3.5
			c-6.7,0.5-13.4,1-20.1,1.6c-6.1,0.5-12.3,1.2-18.4,1.8c-1.4,0.1-2.9,0.4-4-1.3c0.3-1,0.6-2,0.8-3.1c0.4-1.7,1.4-2.5,3.2-2.6
			c7.5-0.8,15.1-1.7,22.6-2.6c6.2-0.7,12.4-1.4,18.6-2.1c0.7-0.1,1.4-0.3,2.1-0.5c0.2-1.3,0.4-2.6,0.6-3.9c0.5-3.7,1-7.5,1.5-11.2
			c1.2-9,2.4-17.9,3.6-26.9c1.6-12.1,3.2-24.3,4.8-36.4c1.4-10.7,2.8-21.4,4.2-32.1c1.4-10.3,2.7-20.6,4.1-30.9
			c1.8-13.4,3.6-26.8,5.3-40.2c1.8-13.5,3.5-27,5.3-40.4c1.6-12.4,3.2-24.7,4.8-37.1c1.1-8.2,2.1-16.3,3.2-24.5
			c0.9-7,1.8-14,2.5-20.9C372.9,70.1,373.5,67.3,372.7,64.2z M393.4,812c0.2,0,0.3,0,0.5,0c0.5-2.4,1.1-4.8,1.6-7.2
			c4.1-18.7,8.2-37.3,12.4-56c5.8-26.1,11.6-52.1,17.5-78.2c6.6-29,13.2-58,19.8-87c5.7-25.2,11.3-50.4,16.9-75.6
			c2-8.8,3.8-17.7,5.7-26.5c0.2-1.1,0.7-2.3-0.1-3.5c-1.4-0.1-2.1,0.8-2.9,1.5c-2.3,2.2-4.7,4.3-6.9,6.6c-7.3,7.4-14.4,15-21.7,22.4
			c-10.6,10.6-21.3,21-32.1,31.4c-1.3,1.3-2,2.5-2,4.4c-0.3,10.1-0.7,20.1-1.1,30.2c-1.6,49.5-3.3,99-4.9,148.4c-1,29-1.9,58-2.8,87
			C393.3,810.8,393.4,811.4,393.4,812z M318.3,160.9c-0.6,0.6-1.2,1.2-1.7,1.8c-2.1,2.9-4.3,5.8-6.2,8.8
			c-11.4,17.7-22.7,35.4-34,53.2c-8.4,13.3-16.7,26.7-25,40.1c-11.3,18.1-22.7,36.2-34,54.3c-13.4,21.6-26.8,43.2-40.2,64.8
			c-4.9,7.9-9.9,15.7-14.9,23.5c-1.3,2.1-1.3,2.2,0.3,4.2c9.5,11.3,19,22.7,28.5,34c0.4,0.5,0.9,0.8,1.3,1.3
			C195,443.5,318.1,164.8,318.3,160.9z M317.6,476.5c-1.1-1.5-1.9-2.6-2.8-3.6c-3.8-4.2-7.7-8.4-11.3-12.7c-11-12.9-22-25.8-33-38.7
			c-2.8-3.3-3.9-3.5-7.3-0.7c-5.3,4.2-10.6,8.5-15.9,12.7c-11.9,9.6-23.8,19.2-35.6,28.8c-0.6,0.5-1.1,1.1-1.9,1.8
			c16.5,17.9,32.9,35.6,49.3,53.4C278.9,504,298.3,490.4,317.6,476.5z M590.9,461.5c-0.8-0.7-1.2-1.3-1.8-1.7
			c-4.4-3.7-8.9-7.3-13.3-11c-6-5-11.9-9.9-17.8-15c-3.7-3.2-7.1-6.6-10.8-9.8c-2.2-1.9-4.5-3.6-6.9-5.2c-2.3-1.5-3.6-1.3-5.6,0.4
			c-0.4,0.3-0.7,0.6-1.1,1c-6.4,6.1-12.9,12.2-19.3,18.4c-8.7,8.4-17.3,16.8-26,25.3c-0.6,0.6-1.1,1.2-1.7,1.8
			c0.1,0.2,0.2,0.3,0.2,0.5c1.8,0,3.6,0.2,5.4,0.1c9.7-0.5,19.3-1.1,29-1.7c5.9-0.4,11.8-0.8,17.7-1.2c10-0.7,20.1-1.4,30.1-2.1
			c0.7,0,1.4,0,2.1,0c0.1,0.4,0.3,0.6,0.3,0.8c0,1.1-0.1,2.2-0.2,3.4c-0.1,2.3-1.3,3.5-3.5,3.8c-4.7,0.6-9.3,1.5-14,1.8
			c-22,1.6-44,3.1-66.1,4.6c-1,0.1-2,0.2-3.6,0.3c15.4,17.5,30.3,34.6,45.8,51.5C550.2,505.3,570.9,483.9,590.9,461.5z M214.7,478.7
			c0.6,3.5,159.4,317,161.3,319.3c-0.4-0.9-0.6-1.4-0.8-1.9c-4.5-10.3-9-20.7-13.5-31c-8.6-19.8-17.2-39.6-25.8-59.4
			c-10.7-24.7-21.4-49.4-32.2-74.2c-7.5-17.3-15.1-34.6-22.6-51.9c-7.2-16.4-14.3-32.8-21.6-49.2c-0.7-1.7-1.7-3.3-2.9-4.6
			c-12.7-14.5-25.6-28.9-38.4-43.3C217.1,481.2,215.9,480,214.7,478.7z M192,460.2c-0.6-1.1-1.1-2-1.7-2.8c-2.4-2.9-4.8-5.8-7.2-8.6
			c-2.8-3.2-5.7-6.3-8.5-9.4c-4.8-5.3-9.6-10.7-14.5-16c-2.1-2.3-3.1-2.5-5.9-1.1c-10.2,5.4-20.4,10.9-30.7,16.4
			c-1.3,0.7-1.9,1.6-1.6,3.1c0.1,0.5,0.1,1.1,0.2,1.7c0.9,4.2,1.9,8.4,2.8,12.6c0.2,0.8,0.5,1.7,0.9,2.4c7.2,12,14.4,24,21.6,35.9
			c1.2,2,2.4,3.9,3.8,6.2C165.1,487.1,178.5,473.7,192,460.2z M293.8,167.7c-0.1-0.1-0.3-0.2-0.4-0.3c-0.3,0.3-0.7,0.7-1,1
			c-3,3.7-6,7.4-9,11.2c-4,5.1-7.9,10.2-11.9,15.4c-9.8,12.7-19.7,25.4-29.5,38.1c-13,16.9-25.9,33.8-38.8,50.7
			c-10.2,13.4-20.2,26.8-30.3,40.3c-7.1,9.4-14,18.9-21.2,28.2c-6,7.8-12.2,15.4-18.2,23.2c-3.5,4.5-6.9,9-10.3,13.6
			c-2.1,2.7-4.1,5.5-6.2,8.2c-0.8,1-1.3,2-1.1,3.3c0.9,5.2,1.8,10.4,2.7,15.6c0.1,0.7,0.6,1.3,1.1,2.5c1.1-2,1.9-3.6,2.8-5
			c3.9-5.8,7.8-11.5,11.7-17.3c7.5-11,14.7-22.1,22.9-32.6c1.7-2.1,3.1-4.5,4.7-6.7c1.6-2.3,3.2-4.6,4.8-6.9
			c1.6-2.2,3.1-4.5,4.7-6.7c1.6-2.2,3.1-4.5,4.7-6.7c1.6-2.2,3.1-4.4,4.7-6.7c1.6-2.3,3.4-4.5,4.7-6.9c1.3-2.4,3.2-4.2,4.7-6.4
			c12.4-18,25-36,37.5-54c19.9-28.6,39.7-57.1,59.6-85.7C289.5,174,291.6,170.8,293.8,167.7z M293.6,177.1c-0.1-0.1-0.3-0.2-0.4-0.3
			c-0.3,0.3-0.8,0.5-1,0.8c-3.7,5-7.3,10.1-10.9,15.2c-3.7,5.4-7.3,10.8-11,16.3c-6.4,9.5-12.9,19.1-19.3,28.6
			c-8.5,12.5-17,25-25.5,37.5c-6.6,9.8-13.2,19.7-19.8,29.5c-6.7,10-13.4,20.1-20.2,30.1c-7.2,10.7-14.3,21.4-21.6,32
			c-4.9,7.2-10.2,14.1-15.1,21.3c-6.9,10.1-13.6,20.3-20.4,30.5c-0.3,0.4-0.4,0.9-0.9,1.9c1.2-0.4,1.9-0.6,2.6-0.9
			c5.3-2.4,10.6-4.8,16-7.1c1.3-0.6,2.2-1.4,2.9-2.6c6.9-11.5,13.9-23,20.9-34.4c5.4-8.7,11-17.2,16.5-25.9
			c6.3-9.9,12.5-19.9,18.7-29.9c17.3-27.8,34.5-55.6,51.8-83.3c11.8-18.9,23.5-37.9,35.3-56.9C292.8,178.7,293.2,177.9,293.6,177.1z
			 M631.6,496.9c0.6-0.7,1-1,1.2-1.4c6.2-9,12.5-18,18.7-27c0.4-0.6,0.7-1.5,0.8-2.2c0.2-2.8,0.3-5.6,0.3-8.4c0-2.2-0.4-2.5-2.6-2.3
			c-0.2,0-0.5,0.1-0.7,0.1c-12.8,1.6-25.7,3.2-38.5,4.8c-0.5,0.1-1,0.3-1.8,0.5C616.5,472.9,623.9,484.7,631.6,496.9z"/>
	</g>
	<g class="light">
		<path d="M379.3,839.5c-0.7-1.2-1-1.9-1.5-2.6c-5.6-7.8-11.1-15.6-16.9-23.3c-12.1-15.9-24.3-31.8-36.4-47.7
			c-13.4-17.6-26.7-35.2-40-52.8c-20.7-27.3-41.3-54.6-62-81.9c-10.4-13.8-21-27.5-31.4-41.2c-11.7-15.4-23.5-30.7-34.8-46.4
			c-15.8-21.9-31.1-44.3-46.7-66.3c-2.8-3.9-3.6-8.2-4.2-12.7c-2.5-17.5-5-35-7.5-52.5c-1-7-1.9-14.1-2.9-21.1
			c-0.2-1.4,0.1-2.4,0.9-3.5c9-12,17.9-24,26.9-35.9c15.3-20.1,30.7-40.1,46.1-60.2c15.8-20.6,31.5-41.3,47.3-62
			c21.9-28.6,43.8-57.1,65.7-85.7c18.9-24.7,37.8-49.4,56.8-74.1C353.2,50.4,368,31.2,382.7,12c0.7-0.9,1.4-1.7,2.2-2.8
			c0.8,1,1.4,1.8,2,2.6c18.6,25.3,37.2,50.7,55.8,76c10.3,14.1,20.5,28.2,30.8,42.3c22.5,30.8,44.9,61.7,67.4,92.5
			c17.1,23.5,34.3,46.8,51.4,70.3c23.2,31.8,46.5,63.7,69.7,95.6c2.3,3.1,4.5,6.2,6.6,9.4c0.5,0.7,0.7,1.8,0.7,2.7
			c-0.6,12.6-1.3,25.2-1.9,37.9c-0.4,6.6-0.7,13.3-1.2,19.9c-0.1,0.9-0.3,1.9-0.7,2.7c-8.1,14.8-16.2,29.6-24.4,44.4
			c-0.8,1.4-1.6,2.7-2.6,4c-13.8,17.9-27.6,35.7-41.4,53.5c-15.4,20-30.9,40-46.3,60.1c-23.6,30.7-47.2,61.3-70.8,92
			c-18.3,23.8-36.6,47.7-54.9,71.6c-9.7,12.6-19.4,25.3-29,37.9c-1.4,1.8-2.8,3.7-4.2,5.6c-0.4,0.5-0.8,0.9-1.5,1.7
			c-0.7-1.3-1.4-2.4-1.9-3.5c-3.8-7.8-7.4-15.8-11.4-23.5c-8.7-16.7-15.4-34.3-22.7-51.6c-21.4-50.3-42.6-100.8-63.9-151.2
			c-9.9-23.5-19.9-47-29.7-70.5c-0.9-2.2-2.2-4.2-3.8-6c-10.7-11.7-21.2-23.5-31.9-35.2c-6-6.6-11.9-13.2-17.9-19.7
			c-1-1.1-2-2-3.2-2.9c-2-1.6-3.3-1.5-5.5-0.1c-1,0.7-1.9,1.5-2.8,2.3c-9.9,9.3-19.8,18.6-29.7,28c-2.6,2.4-5.1,4.8-7.7,7.3
			c-1.8,1.8-1.8,1.9-0.3,4c6.1,8.8,12.3,17.5,18.4,26.4c13.8,20.1,27.5,40.3,41.3,60.4c16.2,23.6,32.5,47.1,48.8,70.7
			c19.8,28.7,39.4,57.5,59.2,86.3c11.9,17.3,23.8,34.5,35.7,51.7c0.5,0.7,0.9,1.3,1.3,2c2.6,4,5.4,7.7,9.1,10.8
			c1.3,1.1,2.4,2.5,3.6,3.8c3.8,4,7.5,8.1,11.3,12.1c1.7,1.8,1.6,1.8,0.2,3.7c-0.5,0.6,0.3,2-2,3.1
			C380.4,841.6,380.4,840.5,379.3,839.5z M472.1,466.8c0.2-0.1,0.3-0.2,0.5-0.3c-0.2-1.1-0.3-2.3-0.5-3.4
			c-5.7-28.8-11.3-57.6-17-86.4c-7.1-36.1-14.3-72.2-21.4-108.3c-5.4-27.1-10.8-54.1-16.2-81.2c-4.3-21.7-8.7-43.4-13-65.2
			c-3.5-17.5-7.1-35-10.4-52.5c-0.8-4.3-3.1-7.2-6.7-9.3c-0.5-0.3-1-1-1.1-1.6c-0.3-1.6-0.3-3.2-0.4-4.8c-0.2-2.1-0.4-2.4-2.5-2.9
			c-0.6-0.2-1.3-0.3-1.9-0.3c-2-0.1-2.6,0.3-3,2.3c-0.9,5.2-1.8,10.4-2.6,15.6c-0.5,3.4-0.7,6.8-1.1,10.3c-1.5,12.3-3,24.6-4.4,36.9
			c-1,8.3-1.8,16.5-2.8,24.8c-1.7,14.5-3.5,29-5.2,43.6c-0.7,5.6-1.3,11.3-1.9,16.9c-1.2,9.8-2.4,19.5-3.5,29.3
			c-0.9,8.1-1.8,16.2-2.7,24.3c-1.4,12.1-2.9,24.3-4.3,36.4c-0.9,7.9-1.8,15.9-2.7,23.8c-1.7,14.4-3.4,28.7-5.1,43.1
			c-0.9,7.9-1.8,15.9-2.7,23.8c-1.4,12.2-2.9,24.4-4.4,36.7c-1,8.5-2,17-3,25.5c-0.7,5.9-1.3,11.8-1.9,17.6c-0.2,2-0.2,2.2,1.9,2.6
			c4.8,0.9,9.6,1.8,14.4,2.4c4.8,0.6,9.6,0.8,14.3,1.3c7.4,0.7,14.8,1.8,22.2,2.3c10.6,0.6,21.2,1,31.9,1.2
			c8.3,0.1,16.6-0.1,24.9-0.5c8-0.3,15.9-1.2,24.1-2.9c-0.7-1-1.2-1.8-1.9-2.5c-1-1-2-1.8-3.1-2.7c-12.3-10.7-24.5-21.3-36.7-32
			c-4.1-3.6-8.6-6.7-11.9-11c-0.9-1.1-2.2-2.4-2.2-3.6c0-2.6,0.6-5.1,1.6-8c10.6,10,20.9,19.8,31.3,29.5
			C451.2,447.4,461.5,457.3,472.1,466.8z M414,77.5c-0.3,0.1-0.5,0.2-0.8,0.3c0.3,0.8,0.5,1.6,0.9,2.3c4.9,10.3,9.7,20.5,14.6,30.8
			c11.8,24.7,23.5,49.4,35.3,74.1c13.5,28,27.1,56,40.5,84c9.3,19.4,18.5,38.8,27.8,58.2c10.2,21.3,20.6,42.5,30.8,63.7
			c5.9,12.2,11.7,24.5,17.6,36.8c5.2,10.8,10.3,21.6,15.5,32.5c0.3,0.7,0.7,1.5,0.7,2.2c-0.1,2.5-0.1,5.1-0.5,7.6
			c-0.4,2.5,0.6,4,2.4,5.5c9.6,8.3,19.2,16.7,28.8,25c0.5,0.4,1.1,0.8,1.8,1.3c1-1.4,1.9-2.6,2.7-3.9c5.8-8.9,11.5-17.9,17.3-26.8
			c0.8-1.3,1.4-2.8,2.2-4.2c0.2-0.4,0.8-0.5,1.1-0.7c-0.1-2.9-0.2-5.6-0.3-8.7c-2.4,0.1-4.5,0.1-6.6,0.2c-9.7,0.3-19.3,0.6-29,1
			c-4.5,0.2-4.5,0.2-7.3-3.4c-1.7-2.3-3.5-4.5-5.3-6.9c4.2-5,8.2-10,12.3-14.9c9.7-11.7,19.4-23.4,29-35.2c1.6-1.9,1.6-2.4,0.1-4.4
			c-2.9-4-5.9-8-8.8-12c-12.5-17.3-25.1-34.6-37.6-51.9c-20-27.6-39.9-55.2-59.9-82.8c-20.6-28.4-41.2-56.7-61.8-85
			c-12.2-16.8-24.6-33.6-36.9-50.3c-6.8-9.2-13.7-18.4-20.5-27.5C418,82.2,415.9,79.9,414,77.5z M319.3,464.9c0.3-1,0.5-1.5,0.6-2.1
			c0.9-6.3,1.9-12.6,2.8-19c1.1-8.2,2.2-16.3,3.3-24.5c1.5-11.2,3.2-22.5,4.7-33.7c1.3-9.4,2.6-18.9,3.9-28.3
			c1.9-13.5,3.7-27.1,5.6-40.6c1-7.4,2-14.9,3-22.3c1.6-11.2,3.1-22.5,4.7-33.7c1.3-9.8,2.6-19.6,4-29.5c1.8-13.5,3.7-27.1,5.6-40.6
			c0.8-5.7,1.5-11.4,2.3-17.1c1.4-9.9,2.7-19.8,4.1-29.7c0.8-6.1,1.6-12.2,2.5-18.3c1.6-11.3,3.1-22.6,4.7-34
			c0.9-6.6,1.8-13.1,2.7-19.7c0.2-1.8,0.5-3.6,0.6-5.5c0.1-1.3-0.4-1.8-1.6-1.9c-1.6-0.2-2.7,0.4-3.4,2.1c-0.7,1.7-1.2,3.5-1.8,5.2
			c-5.8,19.1-11.5,38.3-17.2,57.4c-10.5,35.5-21,71-31.5,106.5c-6.9,23.1-13.7,46.3-20.5,69.5c-9.6,32.5-19.1,65-28.9,97.5
			c-1.1,3.7-0.5,6.3,2.1,8.8c0.8,0.8,1.6,1.6,2.4,2.3c0.4,0.4,0.8,0.7,1.2,1.1c1.1,1.3,2,2.7,3.1,3.9c7.2,8.1,14.4,16.3,21.7,24.4
			c5.8,6.5,11.5,13.1,17.3,19.6C317.6,463.4,318.4,464,319.3,464.9z M394.2,541.7c-0.4-0.5-0.7-0.9-1-1.2c-3.8-3.2-7.6-6.4-11.4-9.6
			c-13.7-11.4-27.5-22.7-41.3-34.1c-4.8-3.9-9.6-7.8-14.4-11.6c-2-1.6-3.2-1.5-5.3-0.3c-1.9,1-1.2,2.5-0.9,4c3,16.3,6,32.5,9,48.8
			c3.9,21.1,7.8,42.3,11.8,63.4c4.5,24,9,48.1,13.5,72.1c6.1,32.4,12.2,64.9,18.2,97.3c0.7,3.9,1.2,7.9,1.8,11.8
			c0.1,0.9,0.2,1.9,0.6,2.8c4.3,10,8.6,20,12.9,29.9c0.2,0.5,0.5,0.9,0.8,1.3c0.2,0,0.3-0.1,0.5-0.1c0-1.9,0.1-3.7,0.1-5.6
			c0.1-9.6,0.2-19.2,0.3-28.8c0.1-14.8,0.2-29.6,0.3-44.4c0.1-8.6,0.1-17.3,0.2-25.9c0.1-7.7,0.2-15.3,0.3-23
			c0.1-14.4,0.2-28.8,0.3-43.2c0.1-12.5,0.2-24.9,0.3-37.4c0.1-13.6,0.3-27.2,0.4-40.8c0.1-7.3,0.1-14.6,0.1-21.8c0-1,0.1-2,0.1-2.9
			C392.5,542.2,393.3,542,394.2,541.7z M404.6,793.1c0.2,0,0.4,0.1,0.6,0.1c0.3-0.6,0.6-1.3,0.9-1.9c6.2-13.6,12.4-27.2,18.6-40.8
			c19.6-43.3,39.2-86.5,58.8-129.8c11.4-25.2,22.9-50.4,34.3-75.6c1.5-3.3,3-6.7,4.6-10c0.7-1.4,0.7-2.6-0.5-3.7
			c-0.3-0.3-0.5-0.6-0.8-0.9c-14.2-16.1-28.3-32.2-42.5-48.3c-1.2-1.3-2.3-2.6-3.6-3.9c-1.6-1.6-2.8-1.3-3.3,0.9
			c-0.1,0.4-0.2,0.8-0.3,1.2c-1.4,6.5-2.7,13-4.1,19.5c-2.5,11.8-5.1,23.6-7.6,35.4c-2.9,13.7-5.8,27.4-8.7,41
			c-3.6,16.7-7.2,33.4-10.8,50.2c-2.8,12.9-5.5,25.8-8.3,38.7c-2.7,12.8-5.5,25.6-8.2,38.5c-2.2,10.5-4.3,21.1-6.6,31.7
			c-1.2,5.6-2.6,11.2-3.8,16.8c-2.4,10.9-4.7,21.7-7,32.6C405.8,787.5,405.2,790.3,404.6,793.1z M351.1,109.8
			c-0.1-0.1-0.3-0.1-0.4-0.2c-0.5,1-0.9,1.9-1.4,2.9c-2.2,4.2-4.5,8.3-6.4,12.6c-4.7,10.5-9.2,21.1-13.6,31.7
			c-8.1,19.4-16.2,38.8-24.3,58.2c-4.3,10.4-8.7,20.8-13,31.2c-3.9,9.4-7.9,18.9-11.8,28.3c-7.4,17.8-14.7,35.7-22,53.5
			c-5.8,14-11.7,28.1-17.5,42.1c-4.7,11.4-9.4,22.8-14.1,34.2c-6.1,14.8-12.1,29.6-18.2,44.4c-0.6,1.5-1.1,3-1.6,4.5
			c-0.1,0.5,0,1,0,1.7c2.1-0.8,3.5-2.2,4.9-3.4c7.1-5.9,14.2-11.9,21.3-17.9c8.5-7.2,17-14.3,25.5-21.5c1.1-0.9,1.8-1.9,2.2-3.3
			c4.4-14.5,8.9-29,13.3-43.6c9.2-30.3,18.5-60.7,27.7-91.1c10.6-34.8,21.2-69.6,31.7-104.4c5.5-18.3,10.9-36.6,16.4-54.9
			C350.2,113.3,350.6,111.6,351.1,109.8z M528.7,525.9c0.6-0.5,1-0.8,1.4-1.2c3.3-3.4,6.7-6.9,10-10.4
			c13.2-14.2,26.3-28.4,39.4-42.6c0.7-0.7,1.5-1.4,2.4-1.7c4.9-1.9,9.1-5,13.3-8c0,0,0-0.2,0.1-0.5c-0.7-0.6-1.4-1.3-2.2-1.9
			c-16.2-13.6-32.4-27.1-48.6-40.7c-1.3-1.1-2.7-2.2-4.1-3.3c-1-0.8-1.8-0.8-2.8,0c-3.2,2.9-6.5,5.7-9.6,8.7
			c-13.8,13.3-27.6,26.7-41.3,40.1c-0.4,0.4-0.7,0.9-1.4,1.8c1.4,0.1,2.4,0.2,3.4,0.1c12.5-0.5,25.1-0.8,37.6-1.6
			c15-1,29.9-2.4,44.9-3.7c3.2-0.3,3.5-0.1,3.9,3.2c0,0.1,0,0.2,0,0.2c0.1,1.6-0.6,2.5-2.3,2.6c-11.5,1.2-23,2.7-34.6,3.6
			c-18,1.4-36,3.1-54.1,3.1c-0.6,0-1.1,0.2-1.9,0.4c0.4,0.6,0.6,1,0.8,1.3c2.6,2.7,5.2,5.4,7.8,8.2c9,9.9,18.5,19.2,27,29.6
			c0.7,0.9,1.5,1.8,2.3,2.7C523,519.2,525.8,522.5,528.7,525.9z M359.7,61.5c-2-0.2-2.6,0.8-3.3,1.7c-2.6,3.8-5.2,7.7-7.8,11.5
			c-6.7,10.1-13.3,20.1-20,30.2c-5.6,8.5-11.1,17.1-16.7,25.7c-5.5,8.5-11.1,17-16.6,25.6c-6.7,10.3-13.3,20.7-20,31.1
			c-7.2,11.1-14.5,22.2-21.7,33.4c-11,17.2-21.9,34.4-32.9,51.6c-6.7,10.6-13.5,21.1-20.3,31.7c-3.9,6.1-7.7,12.2-11.5,18.3
			c-5,7.9-9.9,15.9-14.9,23.8c-4.5,7.1-9.1,14.1-13.6,21.2c-5.4,8.6-10.8,17.2-16.3,25.7c-5.5,8.6-11.2,17.1-16.8,25.7
			c-0.8,1.2-1.6,2.5-2,4.4c1.2-0.4,2.1-0.5,2.8-0.9c7.4-3.1,14.8-6.1,22.1-9.2c1.2-0.5,2.1-1.3,2.8-2.5c4.7-7.8,9.5-15.5,14.3-23.3
			c16.3-26.6,32.6-53.1,48.9-79.7c15.2-24.9,30.4-49.8,45.6-74.7c20.3-33.2,40.7-66.4,60.9-99.7c4.9-8.1,10.4-15.9,14.4-24.6
			c6.9-14.8,14-29.5,21-44.2C358.9,63.6,359.2,62.7,359.7,61.5z M215.4,466.8c-0.1,0.2-0.2,0.4-0.3,0.7
			c14.6,17.2,29.2,34.4,44.2,51.2c0.5-0.3,0.7-0.4,0.9-0.6c10.1-7.7,20.2-15.4,30.3-23.2c8.2-6.3,16.4-12.6,24.5-18.9
			c0.9-0.7,1.6-1.5,2.8-2.5c-0.8-0.7-1.5-1.1-2-1.7c-4.6-5.1-9.2-10.2-13.8-15.3c-6-6.6-11.9-13.4-18-20c-4.5-4.9-9-9.7-13.7-14.5
			c-3.1-3.2-5-3.2-8.6-0.5c-0.1,0.1-0.3,0.2-0.4,0.3c-13.7,11.3-27.6,22.3-40.7,34.3c-0.6,0.5-1,1.1-1.7,2c0.9,0.3,1.5,0.6,2.1,0.7
			c1.8,0.3,3.6,0.6,5.5,0.7c3.2,0.3,6.4,0.5,9.6,0.6c8.3,0.5,16.6,1.1,24.9,1.3c10.2,0.3,20.5,0.4,30.7,0.5c2.2,0,4,0.8,5.8,1.8
			c1.5,0.8,2,2,1.9,3.5c0,1.5-0.9,2.4-2.3,3.1c-1.8,0.9-3.6,1.2-5.6,1.1c-18.1-1.1-36.2-2.2-54.4-3.3c-6.3-0.4-12.6-1-18.9-1.5
			C217.4,466.7,216.4,466.8,215.4,466.8z M455.9,481.8c-0.1-0.2-0.3-0.4-0.4-0.7c-1,0.1-2,0.2-3,0.4c-6.6,1.4-13.2,2.8-19.9,2.9
			c-4.4,0.1-8.8-0.2-13.2-0.3c-3-0.1-5.9-0.2-8.9-0.3c-1.9,0-3.5,0.6-4.9,2.1c-2.1,2.3-4.4,4.4-6.5,6.7c-3.3,3.5-7,6.3-11.4,8.3
			c-1.5,0.6-2.9,1.4-4.3,2.2c-0.7,0.4-1.4,0.8-2,1.4c-2.7,2.9-5.3,5.8-7.9,8.6c2.1,2.7,26,21.6,29.6,23.1
			C420.7,518.2,439.1,500.8,455.9,481.8z M190.9,461c-2.2-0.4-4.1-0.8-6.1-1.2c-18.4-3.4-36.6-7.7-54.7-12.5
			c-1.4-0.4-2.8-0.7-4.2-0.8c-1.7-0.1-2.5,0.7-2.1,2.3c0.9,4.2,1.6,8.5,3.9,12.3c7.4,12.3,14.7,24.6,22.1,36.8
			c0.5,0.9,1.1,1.7,1.7,2.5C154.1,498.7,189.7,463.2,190.9,461z"/>
		<path d="M416,485.8c0.3,0.3,0.5,0.5,0.6,0.8c0,0.2-0.3,0.4-0.5,0.5c-0.2-0.2-0.4-0.4-0.5-0.7C415.5,486.3,415.8,486.1,416,485.8z"
			/>
	</g>
</g>
</svg>
